<svg xmlns="http://www.w3.org/2000/svg" width="256" height="256" fill="none"><rect width="256" height="256" fill="#FF5800" rx="48"/><path fill="#fff" fill-rule="evenodd" d="M71 93a8 8 0 1 0 0-16 8 8 0 0 0 0 16m40-20a8 8 0 1 0 0-16 8 8 0 0 0 0 16m48 36v52c0 15.464-12.536 28-28 28-12.306 0-22.757-7.938-26.513-18.973a32.13 32.13 0 0 0 14.514-13.525L119 161c0 6.627 5.373 12 12 12s12-5.373 12-12v-52a8 8 0 0 1 16 0m-40-20v52c0 15.464-12.536 28-28 28a28 28 0 0 1-8.688-1.374A32 32 0 0 0 83 161v-11.055A11.96 11.96 0 0 0 91 153c6.627 0 12-5.373 12-12V89a8 8 0 0 1 16 0m32-12a8 8 0 1 1 0 16 8 8 0 0 1 0-16m-80 24a8 8 0 0 1 8 8v52c0 15.464-12.536 28-28 28s-28-12.536-28-28h16c0 6.627 5.373 12 12 12s12-5.373 12-12v-52a8 8 0 0 1 8-8" clip-rule="evenodd"/><path fill="#FFCDB3" d="M198.818 101c9.962 0 17.411 2.805 22.185 8.497 4.649 5.543 6.997 11.775 6.997 18.619 0 7.237-2.525 13.481-7.527 18.612-2.843 2.935-7.778 6.376-14.855 10.395l-7.857 4.436c-3.624 2.032-6.447 3.953-8.466 5.751-2.569 2.274-4.42 4.694-5.577 7.268l-.137.317h44.018V189H167l.117-2.208c.396-7.457 1.921-13.987 4.587-19.577 2.741-5.746 7.991-10.872 15.697-15.423l11-6.471c4.782-2.83 8.107-5.222 9.941-7.125 2.761-2.844 4.106-6.016 4.106-9.614 0-4.325-1.231-7.643-3.681-10.085-2.458-2.451-5.752-3.683-10.006-3.683-6.321 0-10.479 2.313-12.82 7.011-1.297 2.605-2.043 6.361-2.187 11.252l-.006.772a7.315 7.315 0 0 1-14.631-.085l.003-.783c.12-7.592 1.512-13.854 4.218-18.777C178.201 105.407 186.8 101 198.818 101"/></svg>