<svg width="360" height="361" viewBox="0 0 360 361" fill="none" xmlns="http://www.w3.org/2000/svg">
<mask id="mask0_48_7" style="mask-type:luminance" maskUnits="userSpaceOnUse" x="0" y="0" width="360" height="361">
<path d="M0 0.960262H360V360.96H0V0.960262Z" fill="white"/>
</mask>
<g mask="url(#mask0_48_7)">
<path d="M120.397 111.723C100.593 111.723 84.538 127.778 84.538 147.583C84.538 167.388 100.593 183.442 120.397 183.442C140.202 183.442 156.257 167.388 156.257 147.583C156.257 127.778 140.202 111.723 120.397 111.723Z" fill="#080707"/>
<path d="M180.199 208.616C149.881 211.079 94.4503 261.623 81.4569 267.702C68.106 273.94 30.0397 283.954 42 188.43C53.9603 92.9073 110.464 59.0132 125.166 66.8013C134.821 71.9271 153.211 79.9934 181.113 79.9934C209.014 79.9934 227.444 71.9271 237.06 66.8013C251.762 59.0132 308.225 92.8675 320.225 188.391C332.225 283.914 294.119 273.901 280.768 267.662C267.775 261.623 212.344 211.079 182.026 208.616H180.199ZM120.397 114.205C101.96 114.205 87.0199 129.146 87.0199 147.583C87.0199 166.02 101.96 180.96 120.397 180.96C138.834 180.96 153.775 166.02 153.775 147.583C153.775 129.146 138.834 114.205 120.397 114.205Z" fill="white"/>
<path d="M115.5 122.223C127.131 122.223 136.56 131.652 136.56 143.283C136.56 154.914 127.131 164.342 115.5 164.342C103.869 164.342 94.4403 154.914 94.4403 143.283C94.4403 131.652 103.869 122.223 115.5 122.223Z" fill="white"/>
<path d="M242.121 140.588C238.003 144.706 231.326 144.706 227.208 140.588C223.09 136.469 223.09 129.792 227.208 125.674C231.326 121.556 238.003 121.556 242.121 125.674C246.24 129.792 246.24 136.469 242.121 140.588Z" fill="#080707"/>
<path d="M273.045 171.511C268.926 175.629 262.249 175.629 258.131 171.511C254.012 167.393 254.012 160.716 258.131 156.597C262.249 152.479 268.926 152.479 273.045 156.597C277.163 160.716 277.163 167.393 273.045 171.511Z" fill="#080707"/>
<path d="M244.607 154.112C250.098 159.603 250.098 168.506 244.607 173.997C239.116 179.488 230.212 179.488 224.721 173.997C219.23 168.506 219.23 159.603 224.721 154.112C230.212 148.621 239.116 148.621 244.607 154.112Z" fill="#080707"/>
<path d="M275.53 123.188C281.022 128.679 281.022 137.582 275.53 143.073C270.039 148.565 261.136 148.565 255.645 143.073C250.154 137.582 250.154 128.679 255.645 123.188C261.136 117.697 270.039 117.697 275.53 123.188Z" fill="#080707"/>
<path d="M180.199 208.616C149.881 211.079 94.4503 261.622 81.4569 267.702C68.1059 273.94 30.0397 283.954 42 188.43C53.9603 92.9073 110.464 59.0133 125.166 66.8017C134.821 71.9272 153.211 79.993 181.113 79.993C209.014 79.993 227.444 71.9272 237.06 66.8017C251.762 59.0133 308.225 92.8672 320.225 188.391C332.225 283.914 294.119 273.901 280.768 267.662C267.775 261.622 212.344 211.079 182.026 208.616H180.199Z" stroke="#080707" stroke-width="16.6887" stroke-miterlimit="10" stroke-linecap="round"/>
<path d="M180.199 208.616C149.881 211.079 94.4503 261.622 81.4569 267.702C68.1059 273.94 30.0397 283.954 42 188.43C53.9603 92.9073 110.464 59.0133 125.166 66.8017C134.821 71.9272 153.211 79.993 181.113 79.993C209.014 79.993 227.444 71.9272 237.06 66.8017C251.762 59.0133 308.225 92.8672 320.225 188.391C332.225 283.914 294.119 273.901 280.768 267.662C267.775 261.622 212.344 211.079 182.026 208.616H180.199Z" stroke="red" stroke-width="16.6887" stroke-miterlimit="10" stroke-linecap="round" stroke-dasharray="180 456465" stroke-dashoffset="0">
    
    <!-- <animate attributeName="stroke-dasharray" begin="0s" dur="2s" to="360 0" fill="freeze" /> -->
</path>
</g>
</svg>
