<svg width="48" height="48" viewBox="0 0 48 48" fill="none" xmlns="http://www.w3.org/2000/svg">
<path d="M12.3342 27.4445H17.9054V25.4208H12.3342V21.191H18.9196V19.1859H9.93652V34.3805H19.1439V32.3567H12.3342V27.4445ZM28.0615 22.738C26.5145 22.738 25.3554 23.584 24.3038 24.5982H24.243L24.0561 23.0278H22.1165V34.3805H24.4721V26.3322C25.4816 25.3226 26.206 24.7851 27.2577 24.7851C28.599 24.7851 29.1786 25.5703 29.1786 27.5287V34.3805H31.5529V27.2389C31.5529 24.3505 30.4779 22.738 28.0615 22.738Z" fill="white"/>
<path d="M42.387 4.52881H10.9322C7.88492 4.52881 5.39378 7.01995 5.39378 10.0673V11.2778C2.44928 11.3946 0.0703125 13.839 0.0703125 16.8116V36.6753C0.0703125 39.7226 2.56145 42.2137 5.60877 42.2137H35.5445C38.5918 42.2137 41.083 39.7226 41.083 36.6753V34.9974H42.387C45.4343 34.9974 47.9254 32.5062 47.9254 29.4589V10.0673C47.9254 7.02462 45.4343 4.52881 42.387 4.52881ZM17.9056 25.4207V27.4445H12.3344V32.3567H19.1488V34.3804H9.94139V19.1859H18.9198V21.1863H12.3344V25.4207H17.9056ZM31.5531 34.3804H29.1788V27.5286C29.1788 25.5656 28.5992 24.7851 27.2579 24.7851C26.2062 24.7851 25.4818 25.3226 24.4723 26.3321V34.3851H22.1167V23.0277H24.0563L24.2432 24.5981H24.304C25.3556 23.5886 26.5147 22.738 28.0617 22.738C30.4781 22.738 31.5484 24.3504 31.5484 27.2388V34.3804H31.5531ZM45.869 29.4636C45.869 30.389 45.5044 31.2583 44.8454 31.922C44.1864 32.581 43.3124 32.9456 42.387 32.9456H41.083V16.8162C41.083 13.7689 38.5918 11.2778 35.5445 11.2778H7.45025V10.0719C7.45025 9.14653 7.81481 8.2772 8.47382 7.61352C9.13282 6.95451 10.0068 6.58996 10.9322 6.58996H42.387C43.3124 6.58996 44.1817 6.95451 44.8454 7.61352C45.5044 8.27253 45.869 9.14653 45.869 10.0719V29.4636Z" fill="#FF8240"/>
</svg>
